<svg width="16" height="17" viewBox="0 0 16 17" fill="none" xmlns="http://www.w3.org/2000/svg">
<path fill-rule="evenodd" clip-rule="evenodd" d="M7.95577 0C7.28759 0 6.74591 0.541762 6.74591 1.21006V6.85412L1.20986 6.85412C0.541672 6.85412 -7.37509e-08 7.39588 0 8.06418C7.37528e-08 8.73248 0.541673 9.27424 1.20986 9.27424H6.74591V14.9183C6.74591 15.5866 7.28759 16.1284 7.95577 16.1284C8.62396 16.1284 9.16563 15.5866 9.16563 14.9183V9.27424H14.7017C15.3699 9.27424 15.9115 8.73248 15.9115 8.06418C15.9115 7.39588 15.3699 6.85412 14.7017 6.85412L9.16563 6.85412V1.21006C9.16563 0.541762 8.62396 0 7.95577 0Z" fill="#8E8E93"/>
</svg>
