<svg width="14" height="14" viewBox="0 0 14 14" fill="none" xmlns="http://www.w3.org/2000/svg">
<path d="M11.6154 1.92334H2.38462C1.61991 1.92334 1 2.54325 1 3.30796V11.6156C1 12.3803 1.61991 13.0003 2.38462 13.0003H11.6154C12.3801 13.0003 13 12.3803 13 11.6156V3.30796C13 2.54325 12.3801 1.92334 11.6154 1.92334Z" stroke="#650375" stroke-linejoin="round"/>
<path d="M11.091 1.92334H2.90904C1.85644 1.92334 1 2.79305 1 3.8618V5.61565H1.46154C1.46154 5.15411 1.92308 4.69257 2.38462 4.69257H11.6154C12.0769 4.69257 12.5385 5.15411 12.5385 5.61565H13V3.8618C13 2.79305 12.1436 1.92334 11.091 1.92334Z" fill="#650375"/>
<path d="M8.15373 6.99936C8.53608 6.99936 8.84604 6.6894 8.84604 6.30705C8.84604 5.9247 8.53608 5.61475 8.15373 5.61475C7.77138 5.61475 7.46143 5.9247 7.46143 6.30705C7.46143 6.6894 7.77138 6.99936 8.15373 6.99936Z" fill="#650375"/>
<path d="M10.4614 6.99936C10.8438 6.99936 11.1537 6.6894 11.1537 6.30705C11.1537 5.9247 10.8438 5.61475 10.4614 5.61475C10.0791 5.61475 9.7691 5.9247 9.7691 6.30705C9.7691 6.6894 10.0791 6.99936 10.4614 6.99936Z" fill="#650375"/>
<path d="M8.15373 9.30649C8.53608 9.30649 8.84604 8.99653 8.84604 8.61418C8.84604 8.23183 8.53608 7.92188 8.15373 7.92188C7.77138 7.92188 7.46143 8.23183 7.46143 8.61418C7.46143 8.99653 7.77138 9.30649 8.15373 9.30649Z" fill="#650375"/>
<path d="M10.4614 9.30649C10.8438 9.30649 11.1537 8.99653 11.1537 8.61418C11.1537 8.23183 10.8438 7.92188 10.4614 7.92188C10.0791 7.92188 9.7691 8.23183 9.7691 8.61418C9.7691 8.99653 10.0791 9.30649 10.4614 9.30649Z" fill="#650375"/>
<path d="M3.53838 9.30649C3.92073 9.30649 4.23068 8.99653 4.23068 8.61418C4.23068 8.23183 3.92073 7.92188 3.53838 7.92188C3.15603 7.92188 2.84607 8.23183 2.84607 8.61418C2.84607 8.99653 3.15603 9.30649 3.53838 9.30649Z" fill="#650375"/>
<path d="M5.84599 9.30649C6.22835 9.30649 6.5383 8.99653 6.5383 8.61418C6.5383 8.23183 6.22835 7.92188 5.84599 7.92188C5.46364 7.92188 5.15369 8.23183 5.15369 8.61418C5.15369 8.99653 5.46364 9.30649 5.84599 9.30649Z" fill="#650375"/>
<path d="M3.53838 11.6161C3.92073 11.6161 4.23068 11.3061 4.23068 10.9238C4.23068 10.5414 3.92073 10.2314 3.53838 10.2314C3.15603 10.2314 2.84607 10.5414 2.84607 10.9238C2.84607 11.3061 3.15603 11.6161 3.53838 11.6161Z" fill="#650375"/>
<path d="M5.84599 11.6161C6.22835 11.6161 6.5383 11.3061 6.5383 10.9238C6.5383 10.5414 6.22835 10.2314 5.84599 10.2314C5.46364 10.2314 5.15369 10.5414 5.15369 10.9238C5.15369 11.3061 5.46364 11.6161 5.84599 11.6161Z" fill="#650375"/>
<path d="M8.15373 11.6161C8.53608 11.6161 8.84604 11.3061 8.84604 10.9238C8.84604 10.5414 8.53608 10.2314 8.15373 10.2314C7.77138 10.2314 7.46143 10.5414 7.46143 10.9238C7.46143 11.3061 7.77138 11.6161 8.15373 11.6161Z" fill="#650375"/>
<path d="M3.30762 1V1.92308" stroke="#650375" stroke-linecap="round" stroke-linejoin="round"/>
<path d="M10.6923 1V1.92308" stroke="#650375" stroke-linecap="round" stroke-linejoin="round"/>
</svg>
