<svg width="21" height="20" viewBox="0 0 21 20" fill="none" xmlns="http://www.w3.org/2000/svg">
<path d="M17.4423 1H3.55769C2.87994 1.00198 2.2305 1.27918 1.75126 1.77103C1.27202 2.26288 1.00193 2.92941 1 3.625V12.625C1.00193 13.3206 1.27202 13.9871 1.75126 14.479C2.2305 14.9708 2.87994 15.248 3.55769 15.25H5.38462V19L9.6651 15.3372C9.73083 15.2808 9.81376 15.25 9.8994 15.25H17.4423C18.1201 15.248 18.7695 14.9708 19.2487 14.479C19.728 13.9871 19.9981 13.3206 20 12.625V3.625C19.9981 2.92941 19.728 2.26288 19.2487 1.77103C18.7695 1.27918 18.1201 1.00198 17.4423 1V1Z" stroke="black" stroke-linejoin="round"/>
</svg>
