<svg width="24" height="18" viewBox="0 0 24 18" fill="none" xmlns="http://www.w3.org/2000/svg">
<path d="M6 17C6 17.5523 6.44772 18 7 18H17C17.5523 18 18 17.5523 18 17V1C18 0.447716 17.5523 0 17 0H7C6.44772 0 6 0.447715 6 1V17ZM0 14.6C0 15.1523 0.447715 15.6 1 15.6H3.8C4.35229 15.6 4.8 15.1523 4.8 14.6V3.4C4.8 2.84771 4.35228 2.4 3.8 2.4H0.999999C0.447715 2.4 0 2.84772 0 3.4V14.6ZM20.2 2.4C19.6477 2.4 19.2 2.84772 19.2 3.4V14.6C19.2 15.1523 19.6477 15.6 20.2 15.6H23C23.5523 15.6 24 15.1523 24 14.6V3.4C24 2.84771 23.5523 2.4 23 2.4H20.2Z" fill="black"/>
</svg>
