<svg width="24" height="18" viewBox="0 0 24 18" fill="none" xmlns="http://www.w3.org/2000/svg">
<path d="M7 17.5C6.72386 17.5 6.5 17.2761 6.5 17V1C6.5 0.723858 6.72386 0.5 7 0.5H17C17.2761 0.5 17.5 0.723857 17.5 1V17C17.5 17.2761 17.2761 17.5 17 17.5H7ZM1 15.1C0.723857 15.1 0.5 14.8761 0.5 14.6V3.4C0.5 3.12386 0.723857 2.9 0.999999 2.9H3.8C4.07614 2.9 4.3 3.12386 4.3 3.4V14.6C4.3 14.8761 4.07614 15.1 3.8 15.1H1ZM19.7 3.4C19.7 3.12386 19.9239 2.9 20.2 2.9H23C23.2761 2.9 23.5 3.12386 23.5 3.4V14.6C23.5 14.8761 23.2761 15.1 23 15.1H20.2C19.9239 15.1 19.7 14.8761 19.7 14.6V3.4Z" stroke="#ADADAD"/>
</svg>
