<svg width="24" height="24" viewBox="0 0 24 24" fill="none" xmlns="http://www.w3.org/2000/svg">
<path d="M17.8711 5.24887C17.7159 4.81035 17.4286 4.43071 17.0488 4.1622C16.6689 3.89369 16.2152 3.74951 15.75 3.74951C15.2848 3.74951 14.8311 3.89369 14.4512 4.1622C14.0714 4.43071 13.7841 4.81035 13.6289 5.24887H2.25V6.74887H13.6289C13.7841 7.18739 14.0714 7.56703 14.4512 7.83554C14.8311 8.10405 15.2848 8.24823 15.75 8.24823C16.2152 8.24823 16.6689 8.10405 17.0488 7.83554C17.4286 7.56703 17.7159 7.18739 17.8711 6.74887H21.75V5.24887H17.8711Z" fill="black"/>
<path d="M8.25 9.75C7.78489 9.75066 7.33138 9.89517 6.95164 10.1637C6.5719 10.4323 6.28452 10.8117 6.1289 11.25H2.25V12.75H6.1289C6.28409 13.1885 6.57139 13.5682 6.95124 13.8367C7.33109 14.1052 7.78483 14.2494 8.25 14.2494C8.71517 14.2494 9.16891 14.1052 9.54876 13.8367C9.92861 13.5682 10.2159 13.1885 10.3711 12.75H21.75V11.25H10.3711C10.2155 10.8117 9.9281 10.4323 9.54836 10.1637C9.16861 9.89517 8.7151 9.75066 8.25 9.75Z" fill="black"/>
<path d="M15.75 15.7495C15.2849 15.7502 14.8314 15.8947 14.4516 16.1632C14.0719 16.4318 13.7845 16.8112 13.6289 17.2495H2.25V18.7495H13.6289C13.7841 19.188 14.0714 19.5677 14.4512 19.8362C14.8311 20.1047 15.2848 20.2489 15.75 20.2489C16.2152 20.2489 16.6689 20.1047 17.0488 19.8362C17.4286 19.5677 17.7159 19.188 17.8711 18.7495H21.75V17.2495H17.8711C17.7155 16.8112 17.4281 16.4318 17.0484 16.1632C16.6686 15.8947 16.2151 15.7502 15.75 15.7495Z" fill="black"/>
</svg>
