<svg width="10" height="14" viewBox="0 0 10 14" fill="none" xmlns="http://www.w3.org/2000/svg">
<path d="M1.93348 13H8.06629C8.61629 13 9.0538 12.5301 8.99463 11.9887C8.61268 8.5 6.33323 8.55769 6.33323 7C6.33323 5.44231 8.64185 5.52885 8.99435 2.01135C9.04991 1.46962 8.61629 1 8.06629 1H1.93348C1.38348 1 0.950974 1.46962 1.00542 2.01135C1.35792 5.52885 3.66654 5.41346 3.66654 7C3.66654 8.58654 1.38709 8.5 1.00542 11.9887C0.945974 12.5301 1.38348 13 1.93348 13Z" stroke="#650375" stroke-linecap="round" stroke-linejoin="round"/>
<path d="M2.33529 11.237L2.35228 11.2532C2.53461 11.0613 2.76386 10.8825 3.00622 10.708C3.10414 10.6374 3.20449 10.5674 3.30464 10.4976C3.45139 10.3952 3.5977 10.2931 3.73531 10.1902C3.96731 10.0166 4.17783 9.83848 4.33042 9.64716C4.48318 9.45562 4.57902 9.24948 4.57902 9.02051V6.0782C4.57902 5.92747 4.50948 5.78769 4.39872 5.6497C4.28803 5.51179 4.13411 5.37318 3.96144 5.22479C3.92442 5.19297 3.8865 5.16068 3.84791 5.12781C3.52544 4.85315 3.15591 4.53841 2.86613 4.12626L2.86613 4.12625C2.81472 4.0532 2.79418 3.96856 2.81462 3.90484C2.82465 3.87359 2.84471 3.84645 2.87759 3.82677C2.91082 3.80689 2.95836 3.79395 3.0239 3.79395H6.98865C7.09734 3.79395 7.15872 3.84296 7.18322 3.90541C7.20841 3.96963 7.19675 4.05342 7.14717 4.12494L7.14715 4.12496C6.85868 4.54192 6.48226 4.85863 6.15364 5.13511C6.11812 5.16499 6.08317 5.19441 6.04894 5.22342C5.87404 5.3717 5.71755 5.51026 5.60486 5.64831C5.49211 5.78643 5.42104 5.92662 5.42104 6.0782V9.02051C5.42104 9.24814 5.52119 9.44817 5.67919 9.63259C5.83696 9.81674 6.05383 9.98699 6.29036 10.1554C6.38577 10.2234 6.48409 10.2908 6.58324 10.3589C6.73115 10.4604 6.8809 10.5631 7.02554 10.6706C7.26647 10.8496 7.48989 11.0394 7.65948 11.2525C7.79375 11.4212 7.83614 11.6238 7.79459 11.7824C7.77387 11.8614 7.73241 11.9292 7.67136 11.9773C7.61041 12.0253 7.52855 12.0548 7.42504 12.0548H2.58696C2.38161 12.0548 2.25141 11.9328 2.20726 11.7721C2.1628 11.6104 2.20573 11.4084 2.35233 11.2531L2.33529 11.237ZM2.33529 11.237C2.5939 10.9648 2.94513 10.7198 3.29187 10.4779C3.93134 10.0317 4.55558 9.59622 4.55558 9.02051V6.0782C4.55558 5.76128 4.23222 5.48589 3.83272 5.14566C3.51042 4.87118 3.13856 4.55449 2.84696 4.13974L7.16643 4.1383C6.87606 4.558 6.49721 4.87671 6.16882 5.15298C5.76931 5.48907 5.44447 5.76235 5.44447 6.0782V9.02051C5.44447 9.54902 6.00181 9.93146 6.59577 10.339C6.99154 10.6106 7.40357 10.8934 7.67782 11.2379C7.95421 11.5852 7.85754 12.0782 7.42504 12.0782H2.58696C2.15362 12.0782 2.0314 11.559 2.33529 11.237Z" fill="#650375" stroke="#650375" stroke-width="0.046875"/>
</svg>
