<svg width="21" height="21" viewBox="0 0 21 21" fill="none" xmlns="http://www.w3.org/2000/svg">
<path d="M13.1157 4.50063L7.8843 1.15403C7.67621 1.0501 7.44631 0.997324 7.21371 1.0001C6.98112 1.00288 6.75254 1.06114 6.547 1.17002L1.38868 4.63078C1.27132 4.69295 1.17313 4.78591 1.10465 4.89969C1.03617 5.01346 0.999988 5.14375 1 5.27654V18.7853C0.999989 18.9113 1.03257 19.0352 1.09458 19.1449C1.15659 19.2546 1.24592 19.3464 1.35389 19.4114C1.46186 19.4764 1.58481 19.5124 1.71079 19.5158C1.83677 19.5192 1.9615 19.4901 2.07286 19.4311L6.5406 16.5179C6.74783 16.4081 6.97843 16.3498 7.21294 16.3479C7.44745 16.346 7.67897 16.4005 7.88796 16.5069L12.9969 19.8407C13.2041 19.9463 13.4335 20.0009 13.666 20C13.8985 19.9991 14.1274 19.9428 14.3338 19.8357L19.6058 16.3676C19.7246 16.306 19.8242 16.2129 19.8937 16.0985C19.9632 15.9842 20 15.8529 20 15.7191V2.214C20 2.08799 19.9674 1.96411 19.9054 1.85441C19.8434 1.74471 19.7541 1.6529 19.6461 1.58791C19.5381 1.52292 19.4152 1.48696 19.2892 1.48351C19.1632 1.48007 19.0385 1.50926 18.9271 1.56825L14.4512 4.48464C14.2459 4.59322 14.0176 4.65131 13.7854 4.65409C13.5531 4.65687 13.3236 4.60426 13.1157 4.50063Z" fill="black" stroke="white" stroke-linecap="round" stroke-linejoin="round"/>
<path d="M13.7876 4.6543V19.9989" stroke="white" stroke-linecap="round" stroke-linejoin="round"/>
<path d="M7.21094 1V16.3446" stroke="white" stroke-linecap="round" stroke-linejoin="round"/>
</svg>
