<svg width="24" height="24" viewBox="0 0 24 24" fill="none" xmlns="http://www.w3.org/2000/svg">
<g clip-path="url(#clip0)">
<path d="M20.0475 16.4728C18.8437 14.9995 17.9939 14.2495 17.9939 10.1878C17.9939 6.46826 16.0945 5.1431 14.5312 4.49951C14.3236 4.4142 14.1281 4.21826 14.0648 4.00498C13.7906 3.0717 13.0219 2.24951 12 2.24951C10.9781 2.24951 10.2089 3.07217 9.93748 4.00592C9.8742 4.22154 9.67873 4.4142 9.47108 4.49951C7.90592 5.14404 6.00842 6.46451 6.00842 10.1878C6.00608 14.2495 5.15624 14.9995 3.95249 16.4728C3.45374 17.0831 3.89061 17.9995 4.76296 17.9995H19.2417C20.1094 17.9995 20.5434 17.0803 20.0475 16.4728Z" stroke="black" stroke-width="1.5" stroke-linecap="round" stroke-linejoin="round"/>
<path d="M15 17.999V18.749C15 19.5447 14.6839 20.3077 14.1213 20.8703C13.5587 21.433 12.7956 21.749 12 21.749C11.2043 21.749 10.4413 21.433 9.87868 20.8703C9.31607 20.3077 9 19.5447 9 18.749V17.999" stroke="black" stroke-width="1.5" stroke-linecap="round" stroke-linejoin="round"/>
<path d="M20.9957 5.24531C22.237 5.24531 23.2434 4.239 23.2434 2.99766C23.2434 1.75631 22.237 0.75 20.9957 0.75C19.7544 0.75 18.748 1.75631 18.748 2.99766C18.748 4.239 19.7544 5.24531 20.9957 5.24531Z" fill="#FF1212"/>
<path d="M20.9977 5.99531C20.4048 5.99531 19.8252 5.8195 19.3322 5.49012C18.8393 5.16073 18.4551 4.69256 18.2282 4.14481C18.0013 3.59706 17.9419 2.99433 18.0576 2.41284C18.1733 1.83135 18.4588 1.29722 18.878 0.877994C19.2972 0.458764 19.8314 0.173266 20.4128 0.0576004C20.9943 -0.0580647 21.5971 0.00129881 22.1448 0.228184C22.6926 0.45507 23.1607 0.839287 23.4901 1.33225C23.8195 1.82521 23.9953 2.40478 23.9953 2.99766C23.9947 3.79249 23.6787 4.5546 23.1166 5.11663C22.5546 5.67867 21.7925 5.99469 20.9977 5.99531ZM20.9977 1.5C20.7009 1.49954 20.4106 1.58712 20.1637 1.75166C19.9167 1.9162 19.7241 2.1503 19.6102 2.42435C19.4963 2.6984 19.4662 3.00007 19.5238 3.2912C19.5815 3.58232 19.7241 3.84982 19.9338 4.05983C20.1435 4.26984 20.4108 4.41294 20.7018 4.471C20.9928 4.52907 21.2946 4.4995 21.5688 4.38604C21.843 4.27258 22.0774 4.08032 22.2424 3.8336C22.4073 3.58687 22.4953 3.29677 22.4953 3C22.4953 2.60258 22.3376 2.22141 22.0568 1.94017C21.776 1.65893 21.3951 1.50062 20.9977 1.5Z" fill="#F40D0D"/>
</g>
<defs>
<clipPath id="clip0">
<rect width="24" height="24" fill="white"/>
</clipPath>
</defs>
</svg>
